<svg xmlns="http://www.w3.org/2000/svg" xmlns:xlink="http://www.w3.org/1999/xlink" version="1.1" shape-rendering="geometricPrecision" width="512" height="512"><rect id="backgroundrect" width="100%" height="100%" x="0" y="0" fill="none" stroke="none"/>  <g class="currentLayer"><title>Layer 1</title><g fill="#fff" id="svg_2"><g id="svg_1"><svg xmlns:xlink="http://www.w3.org/1999/xlink" xmlns="http://www.w3.org/2000/svg" xml:space="preserve" viewBox="0 0 100 100" x="12.5%" y="12.5%" width="75%" height="75%" version="1.1" class="i_c_d" id="svg_3">
 
 




	<path d="M17.434,52.745c-4.12,0-7.46,3.338-7.46,7.459c0,0.319,0.026,0.631,0.066,0.938c0.462,3.677,3.593,6.522,7.394,6.522   c3.906,0,7.105-3.002,7.429-6.823c0.018-0.211,0.032-0.422,0.032-0.638C24.896,56.083,21.556,52.745,17.434,52.745z M13.697,57.393   l1.522,1.522c-0.119,0.203-0.211,0.423-0.271,0.656h-2.145C12.916,58.758,13.227,58.018,13.697,57.393z M12.797,60.863h2.16   c0.062,0.229,0.151,0.447,0.27,0.646l-1.525,1.524C13.231,62.413,12.911,61.672,12.797,60.863z M16.789,64.839   c-0.808-0.112-1.543-0.429-2.164-0.897l1.517-1.517c0.199,0.116,0.418,0.201,0.647,0.261V64.839z M16.789,57.723   c-0.235,0.062-0.455,0.154-0.66,0.275l-1.52-1.521c0.625-0.474,1.366-0.788,2.18-0.901V57.723z M18.08,55.576   c0.814,0.113,1.555,0.428,2.18,0.902l-1.52,1.52c-0.205-0.121-0.425-0.214-0.66-0.275V55.576z M18.08,64.838v-2.152   c0.23-0.06,0.448-0.146,0.647-0.263l1.518,1.519C19.624,64.409,18.889,64.726,18.08,64.838z M21.171,63.04l-1.53-1.531   c0.118-0.2,0.217-0.414,0.278-0.646h2.144C21.948,61.672,21.643,62.419,21.171,63.04z M19.92,59.571   c-0.06-0.233-0.152-0.453-0.271-0.656l1.522-1.522c0.471,0.625,0.782,1.365,0.894,2.179H19.92z" id="svg_4"/>
	<path d="M79.044,52.81c-4.102,0-7.428,3.324-7.428,7.428c0,0.317,0.026,0.627,0.065,0.934c0.46,3.66,3.578,6.494,7.363,6.494   c3.889,0,7.074-2.989,7.396-6.794c0.018-0.21,0.032-0.42,0.032-0.634C86.473,56.134,83.148,52.81,79.044,52.81z M75.323,57.438   l1.516,1.516c-0.118,0.202-0.21,0.421-0.269,0.653h-2.136C74.545,58.796,74.855,58.06,75.323,57.438z M74.427,60.893h2.15   c0.062,0.229,0.151,0.445,0.269,0.644l-1.519,1.519C74.86,62.437,74.541,61.697,74.427,60.893z M78.402,64.852   c-0.805-0.112-1.536-0.428-2.155-0.895l1.51-1.51c0.198,0.115,0.417,0.201,0.645,0.26V64.852z M78.402,57.766   c-0.234,0.061-0.454,0.153-0.657,0.273l-1.513-1.514c0.622-0.471,1.36-0.784,2.17-0.897V57.766z M79.688,55.628   c0.811,0.113,1.549,0.427,2.17,0.898l-1.513,1.513c-0.204-0.12-0.423-0.213-0.657-0.273V55.628z M79.688,64.851v-2.144   c0.229-0.059,0.446-0.146,0.644-0.262l1.511,1.512C81.225,64.423,80.493,64.738,79.688,64.851z M82.765,63.06l-1.524-1.524   c0.118-0.199,0.216-0.412,0.277-0.643h2.134C83.539,61.697,83.235,62.44,82.765,63.06z M81.52,59.606   c-0.06-0.232-0.151-0.451-0.27-0.653l1.516-1.516c0.469,0.622,0.778,1.358,0.889,2.169H81.52z" id="svg_5"/>
	<path d="M99.784,55.053c-0.026-0.984-0.331-1.942-0.881-2.759l-0.403-0.6l-1.757-4.635c-0.331-0.875-1.138-1.484-2.07-1.562   c-1.727-0.146-4.663-0.368-7.465-0.471c-9.794-5.201-27.904-10.43-43.261-4.731c-3.152,1.169-12.155,5.744-12.155,5.744   s-14.62-0.37-25.047,3.349c-4.108,1.465-6.698,5.543-6.265,9.884c0.087,0.869,0.215,1.642,0.341,2.266   c0.199,0.987,1.013,1.731,2.014,1.842l6.488,0.711c-0.409-0.852-0.696-1.774-0.819-2.755c-0.052-0.402-0.078-0.773-0.078-1.132   c0-4.967,4.041-9.008,9.008-9.008c4.968,0,9.01,4.041,9.01,9.008c0,0.26-0.017,0.514-0.038,0.767   c-0.095,1.116-0.4,2.172-0.869,3.135h45.045l0.366-0.021c-0.401-0.842-0.683-1.753-0.804-2.72   c-0.052-0.403-0.077-0.773-0.077-1.127c0-4.95,4.026-8.977,8.976-8.977c4.95,0,8.978,4.026,8.978,8.977   c0,0.259-0.017,0.511-0.038,0.764c-0.062,0.734-0.223,1.438-0.453,2.11l1.015-0.06l6.979-0.923   c1.214-0.161,2.285-0.876,2.898-1.936l0.695-1.199c0.48-0.83,0.721-1.777,0.696-2.735L99.784,55.053z M75.063,46.12H40.902   c0,0,0.203-0.809-0.691-1.786c0,0,8.734-5.633,22.22-4.226c3.711,0.388,8.246,0.651,14.42,3.86L75.063,46.12z" id="svg_6"/>



 </svg></g>
 </g></g></svg>