<svg xmlns="http://www.w3.org/2000/svg" xmlns:xlink="http://www.w3.org/1999/xlink" version="1.1" shape-rendering="geometricPrecision" width="512" height="512"><rect id="backgroundrect" width="100%" height="100%" x="0" y="0" fill="none" stroke="none"/>  <g class="currentLayer"><title>Layer 1</title><g fill="#fff" id="svg_2"><g id="svg_1"><svg xmlns:xlink="http://www.w3.org/1999/xlink" xmlns="http://www.w3.org/2000/svg" xml:space="preserve" viewBox="0 0 216 146" x="15.5%" y="15.5%" width="69%" height="69%" version="1.1" class="i_c_d" id="svg_3">
 
 




	<path d="M40.377,36.663C36.792,40.248,35,44.539,35,49.535v67.786c0,4.997,1.792,9.288,5.377,12.873s7.876,5.377,12.873,5.377   h2.607V31.285H53.25C48.252,31.285,43.961,33.078,40.377,36.663z" id="svg_4"/>
	<path d="M139.285,18.25c0-2.173-0.76-4.019-2.281-5.54c-1.52-1.521-3.367-2.281-5.539-2.281H84.536c-2.172,0-4.019,0.76-5.54,2.281   c-1.521,1.52-2.281,3.367-2.281,5.54v13.035H63.679v104.286h88.641V31.285h-13.035V18.25z M87.143,20.857h41.714v10.428H87.143   V20.857z M139.285,91.25c0,0.761-0.244,1.385-0.732,1.874c-0.488,0.488-1.113,0.733-1.873,0.733h-18.25v18.25   c0,0.76-0.246,1.385-0.734,1.873c-0.487,0.488-1.112,0.732-1.873,0.732h-15.643c-0.761,0-1.385-0.244-1.874-0.732   c-0.488-0.488-0.733-1.113-0.733-1.873v-18.25h-18.25c-0.761,0-1.385-0.245-1.874-0.733c-0.489-0.489-0.733-1.113-0.733-1.874   V75.607c0-0.762,0.244-1.387,0.733-1.875C77.937,73.244,78.562,73,79.322,73h18.25V54.75c0-0.761,0.244-1.385,0.733-1.874   c0.489-0.489,1.113-0.733,1.874-0.733h15.643c0.761,0,1.386,0.244,1.873,0.733c0.488,0.489,0.734,1.113,0.734,1.874V73h18.25   c0.76,0,1.385,0.244,1.873,0.732s0.732,1.113,0.732,1.875V91.25z" id="svg_5"/>
	<path d="M175.623,36.663c-3.585-3.585-7.876-5.378-12.873-5.378h-2.607v104.286h2.607c4.997,0,9.288-1.792,12.873-5.377   c3.584-3.585,5.377-7.876,5.377-12.873V49.535C181,44.539,179.207,40.248,175.623,36.663z" id="svg_6"/>



 </svg></g>
  </g></g></svg>