<svg xmlns="http://www.w3.org/2000/svg" xmlns:xlink="http://www.w3.org/1999/xlink" version="1.1" shape-rendering="geometricPrecision" width="512" height="512"><rect id="backgroundrect" width="100%" height="100%" x="0" y="0" fill="none" stroke="none"/>  <g class="currentLayer"><title>Layer 1</title><g fill="#fff" id="svg_2"><g id="svg_1"><svg xmlns:xlink="http://www.w3.org/1999/xlink" xmlns="http://www.w3.org/2000/svg" xml:space="preserve" viewBox="0 0 100 100" x="12.5%" y="12.5%" width="75%" height="75%" version="1.1" class="i_c_d" id="svg_3">
 
 



<path d="M87.248,71.379c-0.4,0.404-0.928,0.603-1.453,0.603c-0.525,0-1.053-0.202-1.453-0.603L58.118,45.156  L31.895,71.379c-0.802,0.804-2.103,0.802-2.906,0c-0.803-0.801-0.803-2.102,0-2.905l19.7-19.702l-5.605-6.035  c-3.321,3.697-3.849,7.05-3.88,7.277c-0.108,0.772-0.643,1.422-1.379,1.672c-0.22,0.071-0.444,0.108-0.667,0.108  c-0.53,0-1.048-0.203-1.438-0.588c-11.881-11.76-9.085-24.217-8.683-25.75l-2.43-2.615c-0.677-0.729-0.634-1.865,0.094-2.541  c0.728-0.677,1.866-0.635,2.542,0.094l3.048,3.281c0.607-0.035,1.386-0.064,2.292-0.064c5.819,0,16.419,1.187,22.058,9.148  c0.367,0.52,0.475,1.182,0.287,1.791c-0.186,0.607-0.643,1.095-1.24,1.32c-3.388,1.275-5.983,2.816-7.979,4.404l5.525,5.951  l5.432-5.432c0.803-0.803,2.103-0.803,2.907,0l9.747,9.748v-5.002c0-1.135,0.921-2.055,2.056-2.055c1.136,0,2.056,0.92,2.056,2.055  v9.113l13.817,13.817C88.052,69.271,88.052,70.574,87.248,71.379z M81.368,70.828L81.368,70.828L59.573,49.033  c-0.386-0.385-0.909-0.602-1.453-0.602c-0.545,0-1.068,0.217-1.453,0.602L34.871,70.828c-0.291,0.291-0.487,0.662-0.565,1.064  c-0.061,0.313-0.091,0.633-0.091,0.942v10.638c0,2.739,2.229,4.969,4.969,4.969h10.639c1.376,0,2.706-0.582,3.645-1.596  c0.854-0.925,1.324-2.121,1.324-3.373V75.66c0-1.896,1.452-3.48,3.329-3.658c1.877,0.178,3.33,1.762,3.33,3.658v7.812  c0,1.252,0.471,2.448,1.324,3.373c0.938,1.014,2.268,1.596,3.645,1.596h10.639c2.739,0,4.969-2.229,4.969-4.969V72.836  c0-0.312-0.029-0.629-0.09-0.943C81.855,71.49,81.659,71.119,81.368,70.828z M33.585,55.756c0.756-0.158,1.359-0.727,1.562-1.471  c0.204-0.744-0.027-1.539-0.597-2.059l-0.164-0.146c-2.251-1.971-7.6-7.725-8.676-18.594c-0.09-0.914-0.775-1.656-1.68-1.82  c-0.905-0.164-1.808,0.295-2.211,1.119c-0.353,0.723-8.518,17.797,3.061,29.258c0.396,0.391,0.924,0.605,1.46,0.605  c0.248,0,0.496-0.047,0.734-0.14c0.758-0.297,1.268-1,1.304-1.811C28.406,60.299,28.792,56.758,33.585,55.756z M36.577,22.621  C47.8,23.73,51.796,27.854,54.439,30.58c0.35,0.359,0.67,0.689,0.972,0.979c0.389,0.373,0.899,0.572,1.423,0.572  c0.208,0,0.419-0.031,0.624-0.098c0.718-0.229,1.253-0.83,1.396-1.57c0.756-3.943,5.162-5.189,5.342-5.238  c0.709-0.186,1.267-0.736,1.461-1.445c0.193-0.709-0.006-1.467-0.521-1.988c-4.042-4.084-9.25-6.152-15.482-6.152  c-7.378,0-13.519,2.965-13.776,3.09c-0.825,0.404-1.281,1.307-1.118,2.211C34.919,21.844,35.663,22.531,36.577,22.621z   M23.297,18.834c1.223-1.223,1.224-3.205,0-4.43c-1.223-1.223-6.789-2.361-6.789-2.361s1.139,5.566,2.361,6.791  C20.092,20.057,22.074,20.057,23.297,18.834z M33.765,15.836c1.222-1.223,1.223-3.205,0-4.428c-1.225-1.223-6.791-2.361-6.791-2.361  s1.14,5.564,2.362,6.789C30.559,17.059,32.54,17.059,33.765,15.836z M44.03,12.674c1.118-1.119,1.118-2.934,0-4.051  c-1.119-1.119-6.211-2.16-6.211-2.16s1.04,5.092,2.16,6.211C41.098,13.793,42.911,13.793,44.03,12.674z" id="svg_4"/>


 </svg></g>
 </g></g></svg>