<svg xmlns="http://www.w3.org/2000/svg" xmlns:xlink="http://www.w3.org/1999/xlink" version="1.1" shape-rendering="geometricPrecision" width="512" height="512"><rect id="backgroundrect" width="100%" height="100%" x="0" y="0" fill="none" stroke="none"/>  <g class="currentLayer"><title>Layer 1</title><g fill="#fff" id="svg_2"><g id="svg_1"><svg xmlns:xlink="http://www.w3.org/1999/xlink" xmlns="http://www.w3.org/2000/svg" xml:space="preserve" viewBox="0 0 64 64" x="12.5%" y="12.5%" width="75%" height="75%" version="1.1" class="i_c_d" id="svg_3">
 
 



<path d="M14.339,22.1c0.225,0.217,0.521,0.36,0.849,0.39l0.058,0.012l3.333-0.169c-0.716,0.676-1.415,1.422-2.094,2.235  c-5.311,6.366-4.131,17.235-4.078,17.699c0.068,0.567,0.467,1.034,1.019,1.189c0.545,0.15,1.142-0.047,1.481-0.486  c0.545-0.693,5.336-6.858,5.58-9.802c0.008-0.089,0.015-0.179,0.022-0.27l0.07,0.001c0.429,0,0.828-0.192,1.091-0.522l2.601-3.216  c0.164-0.206,0.265-0.446,0.297-0.696c0.038-0.023,0.074-0.047,0.108-0.073c0.109-0.08,2.337-1.738,3.851-4.474  c3.365,3.932,13.166,16.694,13.487,32.272c0.011,0.516,0.301,0.984,0.784,1.233c0.342,0.168,2.168,1.008,4.521,1.008  c1.514,0,2.931-0.347,4.211-1.03c0.554-0.295,0.847-0.93,0.711-1.542c-0.224-1.011-5.311-23.478-17.876-32.81  c0.297-0.055,0.486-0.101,0.539-0.115c0.046-0.012,0.091-0.025,0.135-0.042c0.218,0.133,0.472,0.207,0.732,0.207H39.9  c0.453,0,0.869-0.213,1.136-0.577c0.073,0.051,0.147,0.103,0.221,0.152c2.378,1.615,9.691,1.8,11.072,1.818l0.106,0.004  c0.55,0,1.033-0.322,1.271-0.86c0.22-0.525,0.104-1.126-0.294-1.53c-0.289-0.294-6.54-6.587-13.837-7.764  c2.804-0.294,7.469-2.423,8.435-2.875c0.521-0.244,0.838-0.772,0.808-1.34c-0.027-0.568-0.391-1.061-0.946-1.262  c-0.44-0.152-4.43-1.486-8.925-1.486c-2.775,0-5.188,0.51-7.172,1.517c-4.339,2.203-6.293,4.736-7.143,6.296  c-1.571-0.588-3.932-1.132-7.175-1.024c-7.348,0.256-13.84,7.458-14.115,7.768c-0.378,0.429-0.46,1.036-0.21,1.549  c0.238,0.486,0.723,0.796,1.355,0.784c1.274-0.083,7.736-0.576,9.791-2.128C14.298,22.132,14.318,22.116,14.339,22.1z" id="svg_4"/>


 </svg></g>
 </g></g></svg>